/* XPM */
static char * gB_xpm[] = {
"32 32 52 1",
" 	c #70A853",
".	c #6EA551",
"+	c #6A9F4E",
"@	c #679B4C",
"#	c #6FA752",
"$	c #827734",
"%	c #885B20",
"&	c #88571D",
"*	c #8B470E",
"=	c #876024",
"-	c #699D4D",
";	c #6DA350",
">	c #6DA451",
",	c #F3F7F2",
"'	c #8B480F",
")	c #8A4D15",
"!	c #8B440A",
"~	c #FDFEFD",
"{	c #6CA250",
"]	c #FFFFFF",
"^	c #8B450B",
"/	c #6BA14F",
"(	c #639549",
"_	c #8B460D",
":	c #5A8842",
"<	c #8A4B12",
"[	c #8B460C",
"}	c #6CA350",
"|	c #689D4D",
"1	c #3D2707",
"2	c #3D2506",
"3	c #6FA652",
"4	c #46481D",
"5	c #3E2E0C",
"6	c #6EA652",
"7	c #495223",
"8	c #FDFDFC",
"9	c #474D20",
"0	c #6FA753",
"a	c #529740",
"b	c #3E2B0A",
"c	c #485022",
"d	c #6EA552",
"e	c #699E4E",
"f	c #3C1F02",
"g	c #3B1B00",
"h	c #3C2103",
"i	c #629449",
"j	c #689C4D",
"k	c #639649",
"l	c #679C4C",
"m	c #70A753",
"                                ",
"                                ",
"                                ",
"                                ",
"                                ",
"                                ",
"                                ",
"                                ",
"                                ",
"            .                   ",
"            +                   ",
"            @.                  ",
"            #$%&*=-;            ",
"          >,')!!!!!~{           ",
"         +)]!^^!!!!])/          ",
"        (!!]!!!!!!!]!_+         ",
"       :<!!]!!!!!!!]![[}        ",
"       |1!!]!!!!!!!]!!23        ",
"        /4!]!!!!!!!]!5+         ",
"         678!!!!!!*~90          ",
"     a     >b!!!!!c0d           ",
"    a a     efgggh-             ",
"     a      6i/jklm             ",
"                                ",
"                                ",
"                                ",
"                                ",
"                                ",
"                                ",
"                                ",
"                                ",
"                                "};
