/* XPM */
static char * jd_xpm[] = {
"32 32 9 1",
" 	c #7CA45D",
".	c #5822A0",
"+	c #FDFFFD",
"@	c #FFFFFF",
"#	c #F7CB76",
"$	c #000000",
"%	c #29361F",
"&	c #060606",
"*	c #2C3A21",
"        ...............         ",
"      ..++++++@@@@@++++..       ",
"      ..++++++@@@@@++++..       ",
"      ++++++++@@@@@++++++##     ",
"      ++++++++@@@@@++++++##     ",
"      ++++@@@@@@@@@@@++++####   ",
"      ++++@@@@@@@@@@@++++####   ",
"      ++@@@@@@@@@@@@@@@++####   ",
"      ++@@.........@@@@++####   ",
"      ++@@.........@@@@++####   ",
"    ++@@.............$$$$##     ",
"    ++@@.............$$$$##     ",
"    ++.................@@%%     ",
"    ++.................@@%%     ",
"    @@.................@@&&     ",
"    @@.................@@&&     ",
"    @@.................@@&&     ",
"    @@.................@@&&     ",
"    ++.................@@**     ",
"    ++.................@@**     ",
"    ++++.............$$$$##     ",
"    ++++.............$$$$##     ",
"      ++++.........@@++++####   ",
"      ++++.........@@++++####   ",
"      ++++++++@@@@@++++++####   ",
"      ++++++++@@@@@++++++####   ",
"      ++++++++@@@@@++++++##     ",
"      ++++++++@@@@@++++++##     ",
"      ..++++++@@@@@++++..       ",
"      ..++++++@@@@@++++..       ",
"      ..++++++@@@@@++++..       ",
"        ...............         "};
