/* XPM */
static char * jd1_xpm[] = {
"32 32 209 2",
"  	c #7CA45D",
". 	c #615695",
"+ 	c #5D449A",
"@ 	c #5C3F9B",
"# 	c #76976D",
"$ 	c #799E65",
"% 	c #6540A4",
"& 	c #8B7AB6",
"* 	c #8A79B6",
"= 	c #8A78B5",
"- 	c #9AAE96",
"; 	c #9EB98D",
"> 	c #9FBA8E",
", 	c #8DAF77",
"' 	c #6A7C81",
") 	c #531B9E",
"! 	c #FFFFFF",
"~ 	c #FFFFFE",
"{ 	c #FDFFFD",
"] 	c #C5D5BE",
"^ 	c #7AA161",
"/ 	c #687188",
"( 	c #A1A1B6",
"_ 	c #CDC8DC",
": 	c #CCC7DB",
"< 	c #D6D4E3",
"[ 	c #FEFFFE",
"} 	c #E9EEE6",
"| 	c #D3DECD",
"1 	c #85AA6C",
"2 	c #799F65",
"3 	c #5820A0",
"4 	c #BDB7D3",
"5 	c #FEFFFD",
"6 	c #8EAF78",
"7 	c #7DA560",
"8 	c #7CA45F",
"9 	c #8AAD74",
"0 	c #F5F5F7",
"a 	c #F9FAFA",
"b 	c #F8FAF7",
"c 	c #C9D6C2",
"d 	c #8CAE75",
"e 	c #DAE3D5",
"f 	c #A4BD95",
"g 	c #81A866",
"h 	c #90B17B",
"i 	c #BAB1D0",
"j 	c #AEA4CA",
"k 	c #ADA3CA",
"l 	c #D0CADE",
"m 	c #FDF1E1",
"n 	c #FAE0B7",
"o 	c #D9C279",
"p 	c #C5B96B",
"q 	c #7FA662",
"r 	c #90B17A",
"s 	c #FDFEFD",
"t 	c #FEFDFE",
"u 	c #7961AD",
"v 	c #561C9F",
"w 	c #551C9F",
"x 	c #AA9FC7",
"y 	c #FDFDFD",
"z 	c #FCFDFC",
"A 	c #FAFDFA",
"B 	c #FFFEFD",
"C 	c #FFFEFE",
"D 	c #FBE8CB",
"E 	c #F7CA72",
"F 	c #F7CB76",
"G 	c #E5C472",
"H 	c #7DA45D",
"I 	c #E1E9DD",
"J 	c #F8FBF7",
"K 	c #CAC4DB",
"L 	c #6846A6",
"M 	c #5A2AA1",
"N 	c #5822A0",
"O 	c #6036A2",
"P 	c #6C4DA9",
"Q 	c #4F4764",
"R 	c #474746",
"S 	c #3F3F3E",
"T 	c #C4C4C4",
"U 	c #F8D393",
"V 	c #F7CF84",
"W 	c #F7CD7D",
"X 	c #F6CB76",
"Y 	c #F3CA75",
"Z 	c #B0B366",
"` 	c #E5ECE2",
" .	c #FBFCFC",
"..	c #E1DEEA",
"+.	c #B0A6CB",
"@.	c #5922A1",
"#.	c #3B176B",
"$.	c #443760",
"%.	c #8C8C8C",
"&.	c #BDBDBD",
"*.	c #DEDDDD",
"=.	c #F4CD82",
"-.	c #B4B467",
";.	c #F4F5F7",
">.	c #541B9F",
",.	c #7C65B0",
"'.	c #B6B6B6",
").	c #0D120A",
"!.	c #EDC371",
"~.	c #5925A0",
"{.	c #7B64AE",
"].	c #EEC372",
"^.	c #E7ECE4",
"/.	c #F6F5F8",
"(.	c #0A0D07",
"_.	c #8FA45E",
":.	c #94AA61",
"<.	c #CBBB6C",
"[.	c #E7C572",
"}.	c #85A75F",
"|.	c #739957",
"1.	c #789D5E",
"2.	c #97B585",
"3.	c #95B382",
"4.	c #EAEFE8",
"5.	c #B5B5B5",
"6.	c #779F5A",
"7.	c #B9B568",
"8.	c #EBC773",
"9.	c #EAC673",
"0.	c #D8C06F",
"a.	c #000000",
"b.	c #606060",
"c.	c #5F5F5F",
"d.	c #B6B6B5",
"e.	c #DADADA",
"f.	c #F4F4F4",
"g.	c #FCFEFC",
"h.	c #F3F3F5",
"i.	c #BCB6D2",
"j.	c #33135B",
"k.	c #2D2540",
"l.	c #5A5A5A",
"m.	c #BEBEBE",
"n.	c #F3F3F3",
"o.	c #8AAD73",
"p.	c #E6E6E6",
"q.	c #D1CDDF",
"r.	c #8976B5",
"s.	c #5821A0",
"t.	c #6D4FA9",
"u.	c #8C7AB8",
"v.	c #7A7786",
"w.	c #757675",
"x.	c #737372",
"y.	c #CDCDCD",
"z.	c #8CAE76",
"A.	c #775FAC",
"B.	c #521B9E",
"C.	c #AAA0C7",
"D.	c #607F49",
"E.	c #B2C4A8",
"F.	c #C0D0B7",
"G.	c #BFCFB5",
"H.	c #F1F4F0",
"I.	c #D2CFE0",
"J.	c #CDC7DC",
"K.	c #CDC7DD",
"L.	c #E0DDE9",
"M.	c #E0E8DC",
"N.	c #C1D1B9",
"O.	c #83A969",
"P.	c #E6ECE3",
"Q.	c #FEFEFE",
"R.	c #C6D5BF",
"S.	c #89AC71",
"T.	c #9AB788",
"U.	c #88AB72",
"V.	c #E4E3EC",
"W.	c #F1F1F4",
"X.	c #AEBEAE",
"Y.	c #789E65",
"Z.	c #4F1B9D",
"`.	c #BCB5D1",
" +	c #501B9D",
".+	c #6B7B82",
"++	c #63934C",
"@+	c #7BA360",
"#+	c #70877A",
"$+	c #9195A5",
"%+	c #ADA4C9",
"&+	c #ADA3C9",
"*+	c #A7A1C2",
"=+	c #6F867B",
"-+	c #618862",
";+	c #6C7D80",
">+	c #56209F",
",+	c #561E9F",
"'+	c #57249F",
")+	c #5D469A",
"!+	c #7AA162",
"~+	c #5D439A",
"{+	c #7A9479",
"]+	c #80A46B",
"^+	c #66698D",
"/+	c #645E92",
"(+	c #625D93",
"_+	c #7B9C6F",
":+	c #80A764",
"                    . + + + + + + @ #                           ",
"                $ # @ % & * * * * = - ; > ,                     ",
"                ' ) ) & ! ~ ~ ~ ~ ~ { { { ]                     ",
"            ^ / ( _ : < [ { { { { { { { { } | 1                 ",
"            2 3 4 ~ [ 5 { { { { { { { { { [ ! 6 7 8             ",
"            9 0 a { { { { [ ! ! [ { { { { [ ! b b c             ",
"            d { { { { { { [ ! ! [ { { { { [ ! ! ! e f g         ",
"            d { { { ! ! ! ! ! ! ! ! { { { [ ! ! ! ! ! h         ",
"            d { [ ! i j j j j k l ! [ [ { [ ! ! ! m n o p       ",
"          q r { s t u v v v v w x ! y z A s ! B C D E F G   H   ",
"          I J ! K L M N N N N N O P Q R S T ! U V W F F X Y Z   ",
"          `  ...+.w N N N N N N N @.#.$.%.&.*.=.F F F F F F -.  ",
"          ` ;.) >.N N N N N N N N N @.,.! '.).!.F F F F F F -.  ",
"          ` 0 ~.N N N N N N N N N N N {.! '.).].F F F F F F -.  ",
"          ^./.~.N N N N N N N N N N N {.! '.(._.:.<.F F [.:.}.  ",
"|.|.1.2.3.4./.~.N N N N N N N N N N N {.! 5.(.6.  7.8.9.0.      ",
"a.a.b.! ! ! /.~.N N N N N N N N N N N {.! 5.(.6.                ",
"a.a.b.! ! [ /.~.N N N N N N N N N N N {.! '.(.6.                ",
"a.a.c.! ! { 0 N 3 N N N N N N N N N N {.! d.).6.                ",
"a.e.f.! ! { g.h.i.>.N N N N N N N @.j.k.l.m.n.o.    8           ",
"a.p.! ! ! [ { [ q.r.O N N N N s.t.u.v.w.x.y.! z.    8           ",
"a.p.! ! ! ! ! { 5 ! A.) ) ) ) B.C.! ! ! ! ! ! ,                 ",
"D.E.F.F.G.H.! { { { I.: : J.K.K.L.~ { { { M.N.O.                ",
"          P.Q.{ { { 5 [ 5 ! ! ! ! { { { { R.8                   ",
"          S.T.{ { { { { { [ ! ! [ { [ [ { ]                     ",
"            U.V.W.{ { { { [ ! ! [ { [  .V.X.                    ",
"            Y.Z.`.! ~ ~ ~ ! ! ! ! ~ ~ h. +.+++                  ",
"            @+#+$+%+&+&+&+k j j k &+&+*+=+-+                    ",
"                ;+>+,+v v v v v v v '+)+                        ",
"                @+!+~+N N N N N N s.{+]+                        ",
"                    ^+/+/+/+/+/+/+(+_+:+                        ",
"                                                                "};
