/* XPM */
static char * jd2_xpm[] = {
"32 32 386 2",
"  	c #70A853",
". 	c #70A854",
"+ 	c #6FA559",
"@ 	c #6E9C66",
"# 	c #6139A2",
"$ 	c #600FA8",
"% 	c #600DA8",
"& 	c #6233A4",
"* 	c #709772",
"= 	c #6FA45C",
"- 	c #6B8481",
"; 	c #676395",
"> 	c #6229A6",
", 	c #6219A9",
"' 	c #6218A9",
") 	c #6226A7",
"! 	c #685F99",
"~ 	c #6A798A",
"{ 	c #6FA45A",
"] 	c #70A657",
"^ 	c #6F9D68",
"/ 	c #7D829C",
"( 	c #856DB3",
"_ 	c #8568B6",
": 	c #8568B7",
"< 	c #8668B7",
"[ 	c #8669B7",
"} 	c #866CB6",
"| 	c #817AA8",
"1 	c #6F9C6A",
"2 	c #6FA45B",
"3 	c #70A755",
"4 	c #6E986F",
"5 	c #7566A7",
"6 	c #CDC9DC",
"7 	c #F1F2F5",
"8 	c #F4F5F7",
"9 	c #F5F5F9",
"0 	c #F6F5F9",
"a 	c #F5F5F8",
"b 	c #F3F4F6",
"c 	c #DEDCE7",
"d 	c #7868A9",
"e 	c #6E8B7F",
"f 	c #72A857",
"g 	c #88AA83",
"h 	c #BAB4CF",
"i 	c #E6E4EE",
"j 	c #FBFDFC",
"k 	c #FDFFFD",
"l 	c #FFFFFF",
"m 	c #FEFFFE",
"n 	c #FCFEFC",
"o 	c #F0F0F5",
"p 	c #BCB6D1",
"q 	c #95AC9A",
"r 	c #73A85B",
"s 	c #71A955",
"t 	c #81B06C",
"u 	c #A9C59F",
"v 	c #F4F6F4",
"w 	c #FCFDFC",
"x 	c #FDFEFD",
"y 	c #F6F7F6",
"z 	c #BFD2B8",
"A 	c #86B273",
"B 	c #72A957",
"C 	c #70A753",
"D 	c #73A957",
"E 	c #73A958",
"F 	c #82B06C",
"G 	c #DBE6D7",
"H 	c #EEF4ED",
"I 	c #FEFEFE",
"J 	c #FDFEFE",
"K 	c #F2F7F1",
"L 	c #E2EBE0",
"M 	c #88B375",
"N 	c #71A855",
"O 	c #6B9C54",
"P 	c #96BA88",
"Q 	c #9DBE8F",
"R 	c #A6C49B",
"S 	c #F1F4EF",
"T 	c #EAE9F0",
"U 	c #E7E6EE",
"V 	c #E8E6F0",
"W 	c #E9E6F0",
"X 	c #E9E7F0",
"Y 	c #F3F2F6",
"Z 	c #F4F8F4",
"` 	c #8EB67C",
" .	c #596057",
"..	c #E8EAE8",
"+.	c #F7F9F7",
"@.	c #F8FAF7",
"#.	c #F8FAF8",
"$.	c #FBFCFC",
"%.	c #F0F0F4",
"&.	c #8C73BA",
"*.	c #734DAF",
"=.	c #724CAE",
"-.	c #724CAF",
";.	c #724BAE",
">.	c #7A5BB2",
",.	c #C2B9D8",
"'.	c #F9F9FA",
").	c #F9F9F9",
"!.	c #F9FAF9",
"~.	c #F5F8F5",
"{.	c #8EB77D",
"].	c #575757",
"^.	c #EFEFEF",
"/.	c #D8D4E5",
"(.	c #B7ACD0",
"_.	c #6F42AD",
":.	c #6010A8",
"<.	c #600CA8",
"[.	c #600BA8",
"}.	c #6425AA",
"|.	c #947EBE",
"1.	c #B9AED1",
"2.	c #B1B0B7",
"3.	c #AFB0B0",
"4.	c #B3B4B3",
"5.	c #E2E2E2",
"6.	c #F3F6F3",
"7.	c #545454",
"8.	c #E6E6E6",
"9.	c #F8F8F8",
"0.	c #F2F1F5",
"a.	c #B2A6CD",
"b.	c #7045AE",
"c.	c #6115A8",
"d.	c #6524AA",
"e.	c #6734A7",
"f.	c #463665",
"g.	c #464150",
"h.	c #6C6C6D",
"i.	c #C9C9C9",
"j.	c #E9ECE8",
"k.	c #8BB579",
"l.	c #1F1F1F",
"m.	c #696969",
"n.	c #AAAAAA",
"o.	c #E7E5EE",
"p.	c #8E76BB",
"q.	c #7044AE",
"r.	c #5F0CA7",
"s.	c #5F22A1",
"t.	c #907CB4",
"u.	c #E7E6E8",
"v.	c #B1B1B1",
"w.	c #6E766C",
"x.	c #6FA155",
"y.	c #020202",
"z.	c #2E2E2E",
"A.	c #979797",
"B.	c #FCFDFD",
"C.	c #E3E1EC",
"D.	c #714BAE",
"E.	c #6011A8",
"F.	c #6525A9",
"G.	c #9984C0",
"H.	c #F2F1F4",
"I.	c #ADADAD",
"J.	c #414D3C",
"K.	c #699E4E",
"L.	c #18290F",
"M.	c #313B2D",
"N.	c #949793",
"O.	c #F3F4F2",
"P.	c #FAFBF9",
"Q.	c #FCFCFD",
"R.	c #E5E1ED",
"S.	c #7049AE",
"T.	c #6525AA",
"U.	c #9985C1",
"V.	c #3E4B3A",
"W.	c #699D4E",
"X.	c #78A954",
"Y.	c #7EAA54",
"Z.	c #7FAA54",
"`.	c #7CAA54",
" +	c #71A853",
".+	c #5D8D45",
"++	c #608F49",
"@+	c #7EA36E",
"#+	c #ACC6A2",
"$+	c #B6CEAE",
"%+	c #F1F4F1",
"&+	c #E4E1EC",
"*+	c #7149AE",
"=+	c #9984C1",
"-+	c #77A953",
";+	c #B0B55A",
">+	c #D9BF60",
",+	c #DDC061",
"'+	c #C9BB5E",
")+	c #7BAA54",
"!+	c #6FA652",
"~+	c #76AB5C",
"{+	c #87B374",
"]+	c #ECF1EB",
"^+	c #3F4B3A",
"/+	c #6D9E4E",
"(+	c #F9C966",
"_+	c #FBCA66",
":+	c #E3C262",
"<+	c #83AB55",
"[+	c #72A853",
"}+	c #82B06D",
"|+	c #EBF0EA",
"1+	c #704AAE",
"2+	c #5F0BA8",
"3+	c #484C3A",
"4+	c #9BA753",
"5+	c #A9B359",
"6+	c #DAC060",
"7+	c #FCCA66",
"8+	c #FECB67",
"9+	c #ECC563",
"0+	c #AAB359",
"a+	c #87AC55",
"b+	c #EAF0E9",
"c+	c #E3E2EB",
"d+	c #795FB1",
"e+	c #6428A9",
"f+	c #6324A7",
"g+	c #9681BD",
"h+	c #ECECEF",
"i+	c #AEAEAE",
"j+	c #6E6455",
"k+	c #EABE62",
"l+	c #FFCB67",
"m+	c #FDCB67",
"n+	c #F4C865",
"o+	c #B4B55B",
"p+	c #EBF1E9",
"q+	c #F2F3F6",
"r+	c #D5CFE3",
"s+	c #9D89C2",
"t+	c #672BAB",
"u+	c #5F13A5",
"v+	c #491A7C",
"w+	c #62547D",
"x+	c #A2A2A4",
"y+	c #BFBFBF",
"z+	c #D3CEC8",
"A+	c #FACB7C",
"B+	c #FFCB69",
"C+	c #FAC966",
"D+	c #B7B65B",
"E+	c #80AF6A",
"F+	c #E2ECE0",
"G+	c #F4F8F3",
"H+	c #F7F6F9",
"I+	c #BEB3D5",
"J+	c #8263B6",
"K+	c #6523A9",
"L+	c #600EA8",
"M+	c #7042AE",
"N+	c #7D5DB0",
"O+	c #665E78",
"P+	c #615F64",
"Q+	c #707170",
"R+	c #CECFCE",
"S+	c #F9F6F1",
"T+	c #FFD89B",
"U+	c #FFD284",
"V+	c #FFCE77",
"W+	c #FFCB68",
"X+	c #FCCA67",
"Y+	c #F1C765",
"Z+	c #B1B55A",
"`+	c #77A954",
" @	c #72A956",
".@	c #89B476",
"+@	c #B0CAA6",
"@@	c #F7FAF7",
"#@	c #F7F7FA",
"$@	c #EBE8F1",
"%@	c #8466B7",
"&@	c #6A33AC",
"*@	c #6931AB",
"=@	c #6831AB",
"-@	c #7046AE",
";@	c #BAAFD3",
">@	c #F1EFF5",
",@	c #F3F3F3",
"'@	c #F2F2F2",
")@	c #F1F3F1",
"!@	c #FFFEFE",
"~@	c #FFFAF6",
"{@	c #FFF9F2",
"]@	c #FFE4C0",
"^@	c #FFCE76",
"/@	c #FBCA68",
"(@	c #E5C362",
"_@	c #91AE56",
":@	c #7AA954",
"<@	c #75AA5A",
"[@	c #A3C297",
"}@	c #F7FAF6",
"|@	c #F8F8FA",
"1@	c #BDB3D5",
"2@	c #B2A5CE",
"3@	c #B5A9D0",
"4@	c #DAD4E6",
"5@	c #FFFEFC",
"6@	c #FFF0DD",
"7@	c #FCE0B3",
"8@	c #DEC473",
"9@	c #C4B95E",
"0@	c #74AA59",
"a@	c #A2C296",
"b@	c #FAF9FB",
"c@	c #F9F9FB",
"d@	c #FEFFFF",
"e@	c #FFFFFE",
"f@	c #FCFBF9",
"g@	c #F2F3EC",
"h@	c #99B97F",
"i@	c #7BAA56",
"j@	c #F6F9F5",
"k@	c #FBFCFB",
"l@	c #D7E3D3",
"m@	c #7AAC63",
"n@	c #71A854",
"o@	c #73A959",
"p@	c #9BBB91",
"q@	c #E6E9EB",
"r@	c #F6F8F8",
"s@	c #BDD2B6",
"t@	c #7CAE66",
"u@	c #719972",
"v@	c #7E6FAD",
"w@	c #D3CEE0",
"x@	c #F8F7F9",
"y@	c #FAFBFB",
"z@	c #F9FCF9",
"A@	c #FAFCFA",
"B@	c #F3F6F2",
"C@	c #99BC8B",
"D@	c #79AC61",
"E@	c #70A754",
"F@	c #6E9E63",
"G@	c #6D8388",
"H@	c #A7A6BC",
"I@	c #C2BBD6",
"J@	c #C6BED9",
"K@	c #DAD6E6",
"L@	c #FCFFFC",
"M@	c #C7D8C3",
"N@	c #C6D7C1",
"O@	c #BED1B9",
"P@	c #7FAF6A",
"Q@	c #6FA25E",
"R@	c #6D798F",
"S@	c #6C4FA6",
"T@	c #714AAD",
"U@	c #AC9FCB",
"V@	c #F2F0F6",
"W@	c #F6F7F8",
"X@	c #F6F6F8",
"Y@	c #F5F8F4",
"Z@	c #E2EBDF",
"`@	c #86B275",
" #	c #69A158",
".#	c #77AB60",
"+#	c #6EA061",
"@#	c #6C9470",
"##	c #6341A2",
"$#	c #8B73B9",
"%#	c #8D76B9",
"&#	c #8D7CB6",
"*#	c #93AF91",
"=#	c #8EB67E",
"-#	c #6EA752",
";#	c #666891",
">#	c #665D98",
",#	c #675E99",
"'#	c #686595",
")#	c #709E68",
"!#	c #6FA35C",
"~#	c #6FA35B",
"              . + @ # $ % % % % % & * = .                       ",
"              + - ; > , ' ' ' ' ' ) ! ~ {                       ",
"            ] ^ / ( _ _ _ : < < [ [ } | 1 2 .                   ",
"          3 4 5 6 7 8 8 8 9 0 0 a 8 b c d e ]                   ",
"          f g h i j k k k l l l m k n o p q r                   ",
"        s t u v w k k k k l l l m k m x y z A B                 ",
"C D E E F G H n k k n n n I I I J k k k n K L M N               ",
"O P Q Q R S x k k j T U U V W X Y x k k k x Z ` s               ",
" ...+.@.#.I l k $.%.&.*.=.-.;.>.,.0 '.).!.w ~.{.s               ",
"].^.I l l m m $./.(._.:.<.<.[.}.|.1.2.3.4.5.6.{.s               ",
"7.8.9.I l k j 0.a.b.c.% % % % $ d.e.f.g.h.i.j.k.s               ",
"l.m.n.).l w o.p.q.c.% % % % % % <.r.s.t.u.v.w.x.                ",
"y.z.A.9.l B.C.D.E.% % % % % % % % % F.G.H.I.J.K.                ",
"L.M.N.O.P.Q.R.S.<.% % % % % % % % % T.U.H.I.V.W.  X.Y.Z.`. +    ",
".+++@+#+$+%+&+*+<.% % % % % % % % % T.=+H.I.V.W.-+;+>+,+'+)+    ",
"!+!+N ~+{+]+&+*+<.% % % % % % % % % T.G.H.I.^+/+Y.'+(+_+:+<+[+  ",
"        }+|+C.1+2+% % % % % % % % % T.=+H.I.3+4+5+6+7+8+9+0+a+[+",
"        }+b+c+d+e+:.% % % % % % % % f+g+h+i+j+k+(+7+l+l+m+n+o+X.",
"        }+p+q+r+s+t+% % % % % % E.u+v+w+x+y+z+A+B+l+l+l+l+C+D+X.",
"        E+F+G+H+I+J+K+L+<.<.<.c.M+N+O+P+Q+R+S+T+U+V+W+l+X+Y+Z+`+",
"         @.@+@@@#@$@%@&@*@*@=@-@;@>@,@'@)@!.!@~@{@]@^@/@(@_@:@ +",
"          <@[@}@m |@1@2@2@2@2@3@4@Q.m m k m l l 5@6@7@8@9@)+    ",
"          0@a@}@k x b@c@c@c@c@b@Q.d@k k k m l l e@f@g@h@i@ +    ",
"          0@a@j@k k k k k l l l m k k k k m l I k@l@R m@n@      ",
"          o@p@q@r@x k k k m l l m k k k k m I S p+s@t@n@        ",
"          3 u@v@w@x@y@$.k k k k k k k n z@A@B@C@}+D@n@          ",
"          E@F@G@H@I@J@K@$.k k k k k L@K M@N@O@P@n@              ",
"            E@Q@R@S@T@U@V@W@W@X@X@W@Y@Z@`@ #.#s                 ",
"              E@+#@###;.$#%#%#%#%#&#*#=#E -#                    ",
"                . Q@;#>#,#! ! ! ! '#)#f                         ",
"                  . 2 !#!#!#!#!#!#~#3                           ",
"                                                                "};
