/* XPM */
static char * po_xpm[] = {
"32 32 4 1",
" 	c #70A853",
".	c #FFFFFF",
"+	c #FF0000",
"@	c #529740",
"               ...              ",
"               ...              ",
"               ...              ",
"               ...              ",
"               ...              ",
"               ...              ",
"               ...              ",
"               ...              ",
"               ...              ",
"               ...              ",
"               .+++++           ",
"               .+++++...........",
"               .+++++   .       ",
"               ...      .       ",
"               ...      .       ",
"               ...      .       ",
"               ...      .       ",
"           @   ...      .       ",
"          @ @  ...      .       ",
"           @   ...      .       ",
"     @         .+++++   .       ",
"    @ @        .+++++...........",
"     @         .+++++           ",
"               ...              ",
"               ...              ",
"               ...              ",
"               ...              ",
"               ...              ",
"               ...              ",
"               ...              ",
"               ...              ",
"               ...              "};
