/* XPM */
static char * THaut_xpm[] = {
"32 32 3 1",
" 	c #70A853",
".	c #FFFFFF",
"+	c #529740",
"                                ",
"                                ",
"                                ",
"                                ",
"                                ",
"                                ",
"                                ",
"                                ",
"                                ",
"                                ",
"                                ",
"                                ",
"                                ",
"                                ",
"                                ",
"................................",
"................................",
"................................",
"          + +  ...              ",
"           +   ...              ",
"     +         ...              ",
"    + +        ...              ",
"     +         ...              ",
"               ...              ",
"               ...              ",
"               ...              ",
"               ...              ",
"               ...              ",
"               ...              ",
"               ...              ",
"               ...              ",
"               ...              "};
